<svg width="20" height="22" viewBox="0 0 20 22" fill="none" xmlns="http://www.w3.org/2000/svg">
<path d="M3.17587 19.9688L3.16722 19.9631L3.15848 19.9576C2.98353 19.8467 2.67651 19.4767 2.67651 18.6082L2.67651 4.7193C2.67651 2.82074 4.06509 1.5 5.51054 1.5L14.246 1.5C15.6914 1.5 17.08 2.82075 17.08 4.7193V18.6082C17.08 19.4537 16.7873 19.83 16.5908 19.9621C16.4375 20.0557 16.0997 20.1516 15.5047 19.7941C15.504 19.7937 15.5032 19.7932 15.5025 19.7928L11.1013 17.1221C10.6617 16.8506 10.1808 16.7994 9.87829 16.7994C9.57578 16.7994 9.09489 16.8506 8.65533 17.1221L4.24961 19.7955L4.2496 19.7954L4.24153 19.8004C3.91972 19.9985 3.66067 20.0547 3.4895 20.0547C3.35818 20.0547 3.25373 20.0197 3.17587 19.9688Z" stroke="#FBF9FA" strokeWidth="3"/>
</svg>
