<svg width="39" height="48" viewBox="0 0 39 48" fill="none" xmlns="http://www.w3.org/2000/svg">
<path fillRule="evenodd" clipRule="evenodd" d="M31 0C25.4772 0 21 4.47716 21 10V21.1994C24.5617 23.0201 27 26.7253 27 31V47.2727H28.7273C34.2501 47.2727 38.7273 42.7956 38.7273 37.2727V0H31ZM21 47H26V31C26 27.2986 23.989 24.0669 21 22.3378V34.5839C21.1772 35.1456 21.2727 35.7434 21.2727 36.3636V42.2727H21V47Z" fill="#228187"/>
<path fillRule="evenodd" clipRule="evenodd" d="M10 21C4.47715 21 0 25.4772 0 31V37C0 42.5228 4.47715 47 10 47H26V31C26 25.4772 21.5228 21 16 21H10ZM15.3636 30.4546C12.1001 30.4546 9.45455 33.1001 9.45455 36.3636C9.45455 39.6271 12.1001 42.2727 15.3636 42.2727H21.2727V36.3636C21.2727 33.1001 18.6271 30.4546 15.3636 30.4546Z" fill="#59C3C3"/>
</svg>
