<svg width="28" height="29" viewBox="0 0 28 29" fill="none" xmlns="http://www.w3.org/2000/svg">
<path d="M11.3647 20.4235C10.8245 20.4235 10.3765 19.9755 10.3765 19.4353C10.3765 17.2348 10.3765 14.4941 15.3176 14.4941H20.5882C23.5529 14.4941 23.5529 14.0988 23.5529 11.5294V8.89412C23.5529 6.32471 23.5529 5.92941 20.5882 5.92941H19.2706C18.7304 5.92941 18.2824 5.48141 18.2824 4.94118C18.2824 4.40094 18.7304 3.95294 19.2706 3.95294H20.5882C25.2 3.95294 25.5294 5.824 25.5294 8.89412V11.5294C25.5294 14.5995 25.2 16.4706 20.5882 16.4706H15.3176C12.3529 16.4706 12.3529 17.2744 12.3529 19.4353C12.3529 19.9755 11.9049 20.4235 11.3647 20.4235Z" fill="#228187"/>
<path d="M14.0012 9.88235H8.73065C8.309 9.88235 7.92688 9.60565 7.79512 9.21035C6.88594 6.45647 6.88594 3.42588 7.79512 0.685176C7.92688 0.276706 8.309 0 8.73065 0H14.0012C14.4228 0 14.8049 0.276706 14.9367 0.672C15.8591 3.42588 15.8591 6.45647 14.9367 9.19718C14.8049 9.60565 14.436 9.88235 14.0012 9.88235ZM9.46853 7.90588H13.2765C13.7904 5.96894 13.7904 3.91341 13.2765 1.97647H9.46853C8.95465 3.91341 8.95465 5.96894 9.46853 7.90588Z" fill="#228187"/>
<path d="M8.72941 9.88235H7.41176C4.22306 9.88235 2.47059 8.12988 2.47059 4.94118C2.47059 1.75247 4.22306 0 7.41176 0H8.72941C9.072 0 9.38824 0.171294 9.57271 0.474353C9.75718 0.764235 9.77035 1.13318 9.61223 1.43624C8.42635 3.79482 8.42635 6.10071 9.61223 8.45929C9.77035 8.76235 9.744 9.13129 9.57271 9.42118C9.38824 9.71106 9.072 9.88235 8.72941 9.88235ZM7.25365 1.97647C5.29035 2.02918 4.44706 2.912 4.44706 4.94118C4.44706 6.95718 5.29035 7.85318 7.24047 7.90588C6.58165 5.92941 6.58165 3.95294 7.25365 1.97647Z" fill="#228187"/>
<path d="M15.3166 9.88235H13.999C13.6564 9.88235 13.3401 9.71106 13.1557 9.408C12.9712 9.11812 12.958 8.74918 13.1161 8.44612C14.2888 6.08753 14.2888 3.78165 13.1161 1.42306C12.958 1.12 12.9844 0.751059 13.1557 0.461177C13.3401 0.171294 13.6564 0 13.999 0H15.3166C18.5053 0 20.2578 1.75247 20.2578 4.94118C20.2578 8.12988 18.5053 9.88235 15.3166 9.88235ZM15.4747 1.97647C16.1335 3.95294 16.1335 5.92941 15.4747 7.90588C17.438 7.85318 18.2681 6.97035 18.2681 4.94118C18.2813 2.912 17.438 2.02918 15.4747 1.97647Z" fill="#228187"/>
<path d="M12.0235 28.3294H10.7059C9.34871 28.3294 7.74118 27.8156 7.74118 25.3647V21.4118C7.74118 18.961 9.34871 18.4471 10.7059 18.4471H12.0235C13.3807 18.4471 14.9882 18.961 14.9882 21.4118V25.3647C14.9882 27.8156 13.3807 28.3294 12.0235 28.3294ZM10.7059 20.4236C9.71765 20.4236 9.71765 20.7134 9.71765 21.4118V25.3647C9.71765 26.0631 9.71765 26.353 10.7059 26.353H12.0235C13.0118 26.353 13.0118 26.0631 13.0118 25.3647V21.4118C13.0118 20.7134 13.0118 20.4236 12.0235 20.4236H10.7059Z" fill="#228187"/>
</svg>
