<svg width="17" height="17" viewBox="0 0 17 17" fill="none" xmlns="http://www.w3.org/2000/svg">
<g clipPath="url(#clip0_296_435)">
<path d="M15.9628 -0.0212402H0.912196C0.664633 -0.0212402 0.42721 0.0771034 0.252156 0.252156C0.0771034 0.42721 -0.0212402 0.664633 -0.0212402 0.912196V15.9628C-0.0212402 16.2104 0.0771034 16.4478 0.252156 16.6228C0.42721 16.7979 0.664633 16.8962 0.912196 16.8962H9.01515V10.3469H6.81018V7.79141H9.01455V5.90861C9.01455 3.72548 10.3492 2.53361 12.2987 2.53361C12.9567 2.53131 13.6144 2.56479 14.2688 2.63392V4.91735H12.917C11.855 4.91735 11.6514 5.42124 11.6514 6.16056V7.79082H14.1797L13.8505 10.3439H11.6514V16.8933H15.9622C16.2097 16.8931 16.4471 16.7947 16.6221 16.6197C16.7971 16.4447 16.8955 16.2074 16.8957 15.9599V0.912196C16.8957 0.664735 16.7974 0.427401 16.6225 0.252365C16.4475 0.0773292 16.2103 -0.0210838 15.9628 -0.0212402Z" fill="white"/>
</g>
<defs>
<clipPath id="clip0_296_435">
<rect width="16.875" height="16.875" fill="white"/>
</clipPath>
</defs>
</svg>
