<svg width="36" height="36" viewBox="0 0 36 36" fill="none" xmlns="http://www.w3.org/2000/svg">
<path d="M18 2C16.7913 2 15.7004 2.72489 15.2322 3.83926L14.2455 6.18766C14.0964 6.54255 13.7911 6.8057 13.4447 6.97354V6.97354C13.0888 7.14596 12.6799 7.17738 12.3153 7.02419L10.0174 6.05871C8.88484 5.58283 7.57691 5.83955 6.70823 6.70823V6.70823C5.83955 7.57691 5.58283 8.88484 6.05871 10.0174L7.01702 12.2982C7.17559 12.6756 7.15464 13.106 6.98065 13.4766V13.4766C6.82095 13.8167 6.55312 14.0919 6.20673 14.2375L3.83926 15.2322C2.72489 15.7004 2 16.7913 2 18V18C2 19.2087 2.72489 20.2996 3.83926 20.7678L6.20673 21.7625C6.55312 21.9081 6.82095 22.1833 6.98065 22.5234V22.5234C7.15464 22.894 7.17559 23.3244 7.01702 23.7018L6.05871 25.9826C5.58283 27.1152 5.83955 28.4231 6.70823 29.2918V29.2918C7.57691 30.1605 8.88484 30.4172 10.0174 29.9413L12.3156 28.9757C12.6839 28.8209 13.0861 28.8223 13.4454 28.9969V28.9969C13.7941 29.1664 14.0945 29.4531 14.2447 29.8105L15.2322 32.1607C15.7004 33.2751 16.7913 34 18 34V34C19.2087 34 20.2996 33.2751 20.7678 32.1607L21.7756 29.7622C21.9133 29.4344 22.1657 29.1771 22.4909 29.0332V29.0332C22.8827 28.8598 23.3379 28.8301 23.733 28.9961L25.9826 29.9413C27.1152 30.4172 28.4231 30.1605 29.2918 29.2918V29.2918C30.1605 28.4231 30.4172 27.1152 29.9413 25.9826L28.9821 23.6996C28.8232 23.3216 28.8287 22.8946 29.0042 22.524V22.524C29.1662 22.182 29.4462 21.9084 29.7951 21.7618L32.1607 20.7678C33.2751 20.2996 34 19.2087 34 18V18C34 16.7913 33.2751 15.7004 32.1607 15.2322L29.8006 14.2405C29.4519 14.094 29.1927 13.8135 29.0318 13.4712V13.4712C28.8604 13.1065 28.8243 12.6759 28.9804 12.3044L29.9413 10.0174C30.4172 8.88484 30.1605 7.57691 29.2918 6.70823V6.70823C28.4231 5.83955 27.1152 5.58283 25.9826 6.05871L23.6996 7.01794C23.3216 7.17677 22.8946 7.17134 22.524 6.99583V6.99583C22.182 6.83381 21.9084 6.55384 21.7618 6.20489L20.7678 3.83926C20.2996 2.72489 19.2087 2 18 2V2ZM18 11.9751C21.3117 11.9751 23.985 14.6484 23.985 17.9601C23.985 21.2718 21.3117 23.9451 18 23.9451C14.6883 23.9451 12.015 21.2718 12.015 17.9601C12.015 14.6484 14.6883 11.9751 18 11.9751Z" stroke="#FBF9FA" stroke-width="2.8"/>
</svg>
