<svg width="17" height="17" viewBox="0 0 17 17" fill="none" xmlns="http://www.w3.org/2000/svg">
<g clipPath="url(#clip0_296_433)">
<path d="M8.4375 1.52086C10.6903 1.52086 10.9575 1.5293 11.8477 1.57008C14.1342 1.67414 15.2023 2.75906 15.3063 5.02875C15.3471 5.9182 15.3548 6.18539 15.3548 8.4382C15.3548 10.6917 15.3464 10.9582 15.3063 11.8477C15.2016 14.1152 14.1363 15.2023 11.8477 15.3063C10.9575 15.3471 10.6917 15.3555 8.4375 15.3555C6.18469 15.3555 5.9175 15.3471 5.02805 15.3063C2.73586 15.2016 1.67344 14.1117 1.56938 11.847C1.52859 10.9575 1.52016 10.691 1.52016 8.4375C1.52016 6.18469 1.5293 5.9182 1.56938 5.02805C1.67414 2.75906 2.73937 1.67344 5.02805 1.56938C5.9182 1.5293 6.18469 1.52086 8.4375 1.52086ZM8.4375 0C6.14602 0 5.85914 0.00984375 4.95914 0.050625C1.89492 0.19125 0.191953 1.89141 0.0513281 4.95844C0.00984375 5.85914 0 6.14602 0 8.4375C0 10.729 0.00984375 11.0166 0.050625 11.9166C0.19125 14.9808 1.89141 16.6838 4.95844 16.8244C5.85914 16.8652 6.14602 16.875 8.4375 16.875C10.729 16.875 11.0166 16.8652 11.9166 16.8244C14.978 16.6838 16.6852 14.9836 16.8237 11.9166C16.8652 11.0166 16.875 10.729 16.875 8.4375C16.875 6.14602 16.8652 5.85914 16.8244 4.95914C16.6866 1.89773 14.9843 0.191953 11.9173 0.0513281C11.0166 0.00984375 10.729 0 8.4375 0ZM8.4375 4.10484C6.04477 4.10484 4.10484 6.04477 4.10484 8.4375C4.10484 10.8302 6.04477 12.7709 8.4375 12.7709C10.8302 12.7709 12.7702 10.8309 12.7702 8.4375C12.7702 6.04477 10.8302 4.10484 8.4375 4.10484ZM8.4375 11.25C6.8843 11.25 5.625 9.99141 5.625 8.4375C5.625 6.8843 6.8843 5.625 8.4375 5.625C9.9907 5.625 11.25 6.8843 11.25 8.4375C11.25 9.99141 9.9907 11.25 8.4375 11.25ZM12.9417 2.92148C12.382 2.92148 11.9285 3.375 11.9285 3.93398C11.9285 4.49297 12.382 4.94648 12.9417 4.94648C13.5007 4.94648 13.9535 4.49297 13.9535 3.93398C13.9535 3.375 13.5007 2.92148 12.9417 2.92148Z" fill="#FBF9FA"/>
</g>
<defs>
<clipPath id="clip0_296_433">
<rect width="16.875" height="16.875" fill="white"/>
</clipPath>
</defs>
</svg>
