<svg width="29" height="30" viewBox="0 0 29 30" fill="none" xmlns="http://www.w3.org/2000/svg">
<path d="M13.4477 25.5H8.68965C7.85158 25.5 7.10813 25.472 6.44579 25.374C2.89075 24.968 1.93103 23.232 1.93103 18.5V11.5C1.93103 6.768 2.89075 5.032 6.44579 4.626C7.10813 4.528 7.85158 4.5 8.68965 4.5H13.3666" stroke="#228187" strokeWidth="2" strokeLinecap="round" strokeLinejoin="round"/>
<path d="M27.6131 16.876V18.5C27.6131 23.232 26.6534 24.968 23.0984 25.374C22.436 25.472 21.6926 25.5 20.8545 25.5H18.8539" stroke="#228187" strokeWidth="2" strokeLinecap="round" strokeLinejoin="round"/>
<path d="M18.8539 4.5H20.8545C21.6926 4.5 22.436 4.528 23.0984 4.626C26.6534 5.032 27.6131 6.768 27.6131 11.5" stroke="#228187" strokeWidth="2" strokeLinecap="round" strokeLinejoin="round"/>
<path d="M18.8276 1V29" stroke="#228187" strokeWidth="2" strokeLinecap="round" strokeLinejoin="round"/>
<path d="M14.0891 15H14.1017" stroke="#228187" strokeWidth="2" strokeLinecap="round" strokeLinejoin="round"/>
<path d="M8.14099 15H8.15356" stroke="#228187" strokeWidth="2" strokeLinecap="round" strokeLinejoin="round"/>
</svg>