<svg width="50" height="50" viewBox="0 0 50 50" fill="none" xmlns="http://www.w3.org/2000/svg">
<path d="M37.9478 38.8837H12.0753C2.81526 38.8837 0 36.0698 0 26.814V12.0698C0 2.81395 2.81526 0 12.0753 0H37.9245C47.1846 0 49.9999 2.81395 49.9999 12.0698V26.7907C50.0231 36.0698 47.2079 38.8837 37.9478 38.8837ZM12.0753 3.48837C4.76965 3.48837 3.48999 4.76744 3.48999 12.0698V26.7907C3.48999 34.093 4.76965 35.3721 12.0753 35.3721H37.9245C45.2302 35.3721 46.5099 34.093 46.5099 26.7907V12.0698C46.5099 4.76744 45.2302 3.48837 37.9245 3.48837H12.0753Z" fill="#FBF9FA"/>
<path d="M25.0116 49.9999C24.0576 49.9999 23.2666 49.2092 23.2666 48.2557V37.1394C23.2666 36.186 24.0576 35.3953 25.0116 35.3953C25.9655 35.3953 26.7566 36.186 26.7566 37.1394V48.2557C26.7566 49.2092 25.9655 49.9999 25.0116 49.9999Z" fill="#FBF9FA"/>
<path d="M35.4815 50H14.5416C13.5877 50 12.7966 49.2093 12.7966 48.2558C12.7966 47.3023 13.5877 46.5116 14.5416 46.5116H35.4815C36.4354 46.5116 37.2265 47.3023 37.2265 48.2558C37.2265 49.2093 36.4354 50 35.4815 50Z" fill="#FBF9FA"/>
</svg>
