<svg width="32" height="32" viewBox="0 0 32 32" fill="none" xmlns="http://www.w3.org/2000/svg">
<path d="M29.9921 0.908678C28.231 0.514275 26.432 0.314385 24.6273 0.312599C22.923 0.204386 21.2141 0.434165 19.5989 0.988723C17.9837 1.54328 16.494 2.41168 15.2156 3.54397C13.7619 4.99763 12.3199 6.4474 10.8897 7.89327C10.4611 8.32653 9.86029 8.53389 9.25147 8.50658C7.05858 8.40825 3.3817 8.69998 0.799895 11.3087C0.507737 11.6026 0.34375 12.0002 0.34375 12.4146C0.34375 12.829 0.507737 13.2265 0.799895 13.5204L18.5254 31.2773C18.8193 31.5695 19.2169 31.7334 19.6313 31.7334C20.0457 31.7334 20.4433 31.5695 20.7372 31.2773C23.3556 28.5917 23.6636 24.9635 23.5799 22.8134C23.5565 22.2117 23.7612 21.6187 24.1876 21.1936L28.5489 16.8459C33.5528 11.842 31.2783 2.44593 31.1842 2.05378C31.1118 1.77085 30.9618 1.51376 30.7512 1.31145C30.5406 1.10914 30.2777 0.969648 29.9921 0.908678ZM26.2901 14.6342L20.7058 20.1871C20.5249 20.3697 20.3917 20.594 20.3179 20.8401C20.244 21.0863 20.2318 21.3469 20.2822 21.5989C20.4675 22.746 20.4633 23.909 20.276 25.043C20.049 26.4167 18.3906 26.7325 17.4071 25.747L6.29271 14.6096C5.30976 13.6246 5.62872 11.9678 7.0031 11.7499C8.16968 11.5651 9.366 11.5779 10.5411 11.795C10.7922 11.8276 11.0475 11.7991 11.2851 11.7117C11.5129 11.6279 11.718 11.4924 11.8844 11.3161C11.8988 11.3008 11.9121 11.2864 11.9267 11.2714C12.1579 11.0323 14.2891 8.83121 17.4117 5.70868C19.4468 4.07435 22.0235 3.26773 24.6273 3.44985C25.3768 3.45357 26.1254 3.4943 26.8703 3.57181C27.7186 3.66009 28.3849 4.3256 28.4747 5.17375C28.7585 7.85381 28.7509 12.1734 26.2901 14.6342Z" fill="#FBF9FA"/>
<path d="M21.8509 13.3322C23.5835 13.3322 24.9881 11.9276 24.9881 10.195C24.9881 8.46231 23.5835 7.05771 21.8509 7.05771C20.1182 7.05771 18.7136 8.46231 18.7136 10.195C18.7136 11.9276 20.1182 13.3322 21.8509 13.3322Z" fill="#FBF9FA"/>
<path d="M6.03889 23.2927C5.43017 22.684 4.46245 22.5131 3.89432 23.1599C2.75274 24.4594 2.25888 26.5238 2.04523 28.0668C1.89066 29.183 2.81963 30.1058 3.92486 29.8858C5.38615 29.5948 6.78236 29.0397 8.04424 28.2479C9.01508 27.6388 9.0448 26.2986 8.23437 25.4882L6.03889 23.2927Z" fill="#FBF9FA"/>
</svg>
