<svg width="50" height="50" viewBox="0 0 50 50" fill="none" xmlns="http://www.w3.org/2000/svg">
<path d="M25.0455 41.5528C15.9381 41.5528 8.53825 34.153 8.53825 25.0455C8.53825 15.9381 15.9381 8.53825 25.0455 8.53825C34.153 8.53825 41.5528 15.9381 41.5528 25.0455C41.5528 34.153 34.153 41.5528 25.0455 41.5528ZM25.0455 11.9536C17.8279 11.9536 11.9536 17.8279 11.9536 25.0455C11.9536 32.2632 17.8279 38.1375 25.0455 38.1375C32.2632 38.1375 38.1375 32.2632 38.1375 25.0455C38.1375 17.8279 32.2632 11.9536 25.0455 11.9536Z" fill="#FBF9FA"/>
<path d="M25.0455 50C23.7933 50 22.7687 49.0665 22.7687 47.8142V47.6321C22.7687 46.3798 23.7933 45.3552 25.0455 45.3552C26.2978 45.3552 27.3224 46.3798 27.3224 47.6321C27.3224 48.8843 26.2978 50 25.0455 50ZM41.3024 43.5792C40.7104 43.5792 40.1412 43.3516 39.6858 42.9189L39.3898 42.623C38.5018 41.735 38.5018 40.3005 39.3898 39.4126C40.2778 38.5246 41.7122 38.5246 42.6002 39.4126L42.8962 39.7086C43.7842 40.5965 43.7842 42.031 42.8962 42.9189C42.4636 43.3516 41.8944 43.5792 41.3024 43.5792ZM8.78871 43.5792C8.19672 43.5792 7.6275 43.3516 7.17213 42.9189C6.28415 42.031 6.28415 40.5965 7.17213 39.7086L7.46812 39.4126C8.3561 38.5246 9.79053 38.5246 10.6785 39.4126C11.5665 40.3005 11.5665 41.735 10.6785 42.623L10.3825 42.9189C9.94991 43.3516 9.35792 43.5792 8.78871 43.5792ZM47.8142 27.3224H47.6321C46.3798 27.3224 45.3552 26.2978 45.3552 25.0455C45.3552 23.7933 46.3798 22.7687 47.6321 22.7687C48.8843 22.7687 50 23.7933 50 25.0455C50 26.2978 49.0665 27.3224 47.8142 27.3224ZM2.45902 27.3224H2.27687C1.02459 27.3224 0 26.2978 0 25.0455C0 23.7933 1.02459 22.7687 2.27687 22.7687C3.52914 22.7687 4.64481 23.7933 4.64481 25.0455C4.64481 26.2978 3.71129 27.3224 2.45902 27.3224ZM41.0064 11.3616C40.4144 11.3616 39.8452 11.1339 39.3898 10.7013C38.5018 9.8133 38.5018 8.37887 39.3898 7.49089L39.6858 7.1949C40.5738 6.30692 42.0082 6.30692 42.8962 7.1949C43.7842 8.08288 43.7842 9.51731 42.8962 10.4053L42.6002 10.7013C42.1676 11.1339 41.5984 11.3616 41.0064 11.3616ZM9.0847 11.3616C8.49271 11.3616 7.9235 11.1339 7.46812 10.7013L7.17213 10.3825C6.28415 9.49454 6.28415 8.06011 7.17213 7.17213C8.06011 6.28415 9.49454 6.28415 10.3825 7.17213L10.6785 7.46812C11.5665 8.3561 11.5665 9.79053 10.6785 10.6785C10.2459 11.1339 9.65392 11.3616 9.0847 11.3616ZM25.0455 4.64481C23.7933 4.64481 22.7687 3.71129 22.7687 2.45902V2.27687C22.7687 1.02459 23.7933 0 25.0455 0C26.2978 0 27.3224 1.02459 27.3224 2.27687C27.3224 3.52914 26.2978 4.64481 25.0455 4.64481Z" fill="#FBF9FA"/>
</svg>
